<?xml version="1.0" encoding="utf-8"?>
<!-- Svg Vector Icons : http://www.onlinewebfonts.com/icon -->
<!DOCTYPE svg PUBLIC "-//W3C//DTD SVG 1.1//EN" "http://www.w3.org/Graphics/SVG/1.1/DTD/svg11.dtd">
<svg version="1.1" xmlns="http://www.w3.org/2000/svg" xmlns:xlink="http://www.w3.org/1999/xlink" x="0px" y="0px" viewBox="0 0 256 256" enable-background="new 0 0 256 256" xml:space="preserve">
<metadata> Svg Vector Icons : http://www.onlinewebfonts.com/icon </metadata>
<g><g><g><path fill="#000000" d="M117.6,11.5c-25.2,3.9-41,22.6-43,50.7c-0.4,4.5-0.4,4.8-1.9,5.7c-6.1,4-7.4,17.3-2.6,27.1c1.6,3.3,5.2,6.7,7.6,7.1c1.6,0.3,1.9,0.6,2.4,2.5c8.1,31.2,18.2,44.4,37.4,48.7c5.5,1.2,16.8,1.1,22.1-0.3c16.6-4.3,26.8-17.5,34.3-43.9l2-7h2.4c6.2,0.1,11.1-7.8,11.6-18.6c0.4-8.3-1.7-14.1-5.7-16c-1.8-0.8-1.8-1-1.8-3.6c0-3.9-0.9-10-2.1-14.8c-5-19.1-18.9-32.6-37.7-36.8C137.8,11.2,122.2,10.7,117.6,11.5z"/><path fill="#000000" d="M170.3,163.4c-4.5,1.4-5.5,2.8-23,32.9c-9,15.6-16.9,29-17.5,29.7c-1.2,1.7-1.8,1.8-3.2,0.3c-0.6-0.6-8.6-13.8-17.8-29.2c-11.4-19.2-17.3-28.7-18.7-29.9c-3-2.8-5.3-3.8-8.9-3.7c-2.7,0-3.8,0.5-9.5,3.4c-6.7,3.5-13.3,6-25.7,9.9c-18.3,5.7-28,12.2-32.7,21.8c-2.9,5.8-3.4,9.1-3.4,22.9c0,13.5,0.3,15.2,3.4,18.7c1,1.1,2.9,2.7,4.4,3.4l2.7,1.3H128h107.6l2.7-1.3c3-1.5,5.4-4,6.8-7c0.8-1.8,1-3.6,1-14.9c0-11.1-0.2-13.3-1-16.8c-1.9-7.7-6.4-13.9-13.3-18.4c-5.7-3.8-12.2-6.5-27.8-11.5c-7.5-2.4-16.3-6.1-22.5-9.4C176.6,162.9,173.8,162.3,170.3,163.4z"/></g></g></g>
</svg>